<!--?xml version="1.0" standalone="no"?-->
              <svg id="sw-js-blob-svg" viewBox="0 0 100 100" xmlns="http://www.w3.org/2000/svg" version="1.1">
                    <defs> 
                        <linearGradient id="sw-gradient" x1="0" x2="1" y1="1" y2="0">
                            <stop id="stop1" stop-color="rgba(248, 117, 55, 1)" offset="0%"></stop>
                            <stop id="stop2" stop-color="rgba(251, 168, 31, 1)" offset="100%"></stop>
                        </linearGradient>
                    </defs>
                <path fill="url(#sw-gradient)" d="M18.5,-32.4C23,-29.5,24.9,-22.5,27.3,-16.4C29.8,-10.3,32.7,-5.2,32.9,0.1C33.1,5.4,30.7,10.9,28.7,17.6C26.6,24.3,25,32.3,20.2,36.8C15.5,41.3,7.8,42.2,0.3,41.7C-7.2,41.2,-14.4,39.3,-20.8,35.8C-27.3,32.3,-33,27.3,-33.8,21.1C-34.6,14.9,-30.5,7.4,-31.1,-0.3C-31.6,-8,-36.7,-16.1,-34.6,-20C-32.4,-24,-23.1,-23.9,-16.1,-25.3C-9.1,-26.8,-4.6,-29.9,1.2,-32C7,-34.1,14,-35.3,18.5,-32.4Z" width="100%" height="100%" transform="translate(50 50)" style="transition: all 0.3s ease 0s;" stroke-width="0"></path>
              </svg>