<!--?xml version="1.0" standalone="no"?-->
              <svg id="sw-js-blob-svg" viewBox="0 0 100 100" xmlns="http://www.w3.org/2000/svg" version="1.1">
                    <defs> 
                        <linearGradient id="sw-gradient" x1="0" x2="1" y1="1" y2="0">
                            <stop id="stop1" stop-color="rgba(248, 117, 55, 1)" offset="0%"></stop>
                            <stop id="stop2" stop-color="rgba(251, 168, 31, 1)" offset="100%"></stop>
                        </linearGradient>
                    </defs>
                <path fill="url(#sw-gradient)" d="M19.7,-32.9C25.4,-30.7,30,-25.4,31.8,-19.3C33.5,-13.3,32.4,-6.7,33.1,0.4C33.9,7.5,36.4,15,34.3,20.4C32.2,25.8,25.5,29.2,19,31.9C12.6,34.6,6.3,36.6,-0.6,37.5C-7.4,38.5,-14.8,38.4,-20.4,35.2C-26,32.1,-29.9,25.8,-31.2,19.4C-32.5,13,-31.2,6.5,-32,-0.5C-32.8,-7.4,-35.6,-14.8,-33.3,-19.5C-31.1,-24.2,-23.7,-26.3,-17.3,-28.1C-10.9,-29.9,-5.5,-31.4,0.7,-32.7C6.9,-34,13.9,-35,19.7,-32.9Z" width="100%" height="100%" transform="translate(50 50)" style="transition: all 0.3s ease 0s;" stroke-width="0"></path>
              </svg>